<svg id="Logo" xmlns="http://www.w3.org/2000/svg" width="215" height="29.563" viewBox="0 0 215 29.563">
  <metadata><?xpacket begin="﻿" id="W5M0MpCehiHzreSzNTczkc9d"?>
<x:xmpmeta xmlns:x="adobe:ns:meta/" x:xmptk="Adobe XMP Core 5.6-c142 79.160924, 2017/07/13-01:06:39        ">
   <rdf:RDF xmlns:rdf="http://www.w3.org/1999/02/22-rdf-syntax-ns#">
      <rdf:Description rdf:about=""/>
   </rdf:RDF>
</x:xmpmeta>
                                                                                                    
                                                                                                    
                                                                                                    
                                                                                                    
                                                                                                    
                                                                                                    
                                                                                                    
                                                                                                    
                                                                                                    
                                                                                                    
                                                                                                    
                                                                                                    
                                                                                                    
                                                                                                    
                                                                                                    
                                                                                                    
                                                                                                    
                                                                                                    
                                                                                                    
                                                                                                    
                           
<?xpacket end="w"?></metadata>
<defs>
    <style>
      .cls-1 {
        fill: #db0040;
      }

      .cls-1, .cls-2 {
        fill-rule: evenodd;
      }

      .cls-2 {
        fill: #fff;
      }
    </style>
  </defs>
  <path id="Logo-2" data-name="Logo" class="cls-1" d="M106.927,6.471a11.559,11.559,0,0,1,10.612,6.734h4.091a15.579,15.579,0,0,0-29.406,0h4.092A11.557,11.557,0,0,1,106.927,6.471Zm-5.513,8.666H87.041v4.836h14.373V15.138Zm11.026,4.836h14.373V15.138H112.44v4.836Zm-5.513,8.666a11.557,11.557,0,0,1-10.612-6.734H92.224a15.578,15.578,0,0,0,29.406,0h-4.091A11.559,11.559,0,0,1,106.927,28.639Z" transform="translate(-4 -2.781)"/>
  <path id="Logo_copy" data-name="Logo copy" class="cls-2" d="M209.258,9.769a11.973,11.973,0,0,0-6.245-.8,10.479,10.479,0,0,0-3.677.961,8.953,8.953,0,0,0-4.137,4.382,10.778,10.778,0,0,0-1.145,3.22c-0.109.555-.207,1.144-0.265,1.743h5.12c0.049-.432.124-0.843,0.191-1.2a10.046,10.046,0,0,1,1.61-4.278,3.694,3.694,0,0,1,2.924-1.635c1.483,0,2.894.667,2.669,2.351h5.088a5.191,5.191,0,0,0,.107-1.85A3.693,3.693,0,0,0,209.258,9.769Zm8.892-2.187h0a2.98,2.98,0,0,0-4.1,0h0a2.707,2.707,0,0,0,0,3.939h0a2.979,2.979,0,0,0,4.1,0h0A2.707,2.707,0,0,0,218.15,7.582Zm-0.414,3.542a2.384,2.384,0,0,1-3.273,0,2.165,2.165,0,0,1,0-3.145,2.384,2.384,0,0,1,3.273,0A2.165,2.165,0,0,1,217.736,11.125Zm-0.608-.521c-0.01-.105-0.015-0.217-0.015-0.336a1.085,1.085,0,0,0-.038-0.3,0.592,0.592,0,0,0-.095-0.191,0.422,0.422,0,0,0-.125-0.107,0.408,0.408,0,0,0-.126-0.043V9.62a0.63,0.63,0,0,0,.077-0.037,0.619,0.619,0,0,0,.11-0.079,0.64,0.64,0,0,0,.114-0.138,0.768,0.768,0,0,0,.09-0.21,1.175,1.175,0,0,0,.036-0.3,0.934,0.934,0,0,0-.095-0.44,0.656,0.656,0,0,0-.287-0.28,1.037,1.037,0,0,0-.472-0.1h-1.234v3.027h0.452V9.819h0.666a0.6,0.6,0,0,1,.256.047,0.349,0.349,0,0,1,.157.145,0.684,0.684,0,0,1,.079.25,2.239,2.239,0,0,1,.022.36c0,0.05,0,.1,0,0.152a1.112,1.112,0,0,0,.019.153,0.5,0.5,0,0,0,.048.14h0.485a0.526,0.526,0,0,1-.08-0.183A1.765,1.765,0,0,1,217.128,10.6Zm-0.538-1.31a0.425,0.425,0,0,1-.328.122H215.52V8.471h0.735a0.722,0.722,0,0,1,.17.018,0.356,0.356,0,0,1,.142.069,0.329,0.329,0,0,1,.1.141,0.668,0.668,0,0,1,.037.235A0.517,0.517,0,0,1,216.59,9.294ZM16.367,8.989a16.85,16.85,0,0,0-4.617.07,7.71,7.71,0,0,0-4.59,2.275,5.545,5.545,0,0,0-1.313,2.6,3.447,3.447,0,0,0,.689,3.359,5.175,5.175,0,0,0,2.138,1.168,22.122,22.122,0,0,0,3.016.815H19.4a2.956,2.956,0,0,0-.293-1.012,4.859,4.859,0,0,0-2.737-1.992c-1.319-.545-4.521-0.623-5.256-1.858a1.28,1.28,0,0,1,.264-1.4,1.867,1.867,0,0,1,.368-0.341,2.835,2.835,0,0,1,3.147-.055c0.6,0.442.46,0.847,0.46,1.52H20.2a12.029,12.029,0,0,0,.163-1.309,3.308,3.308,0,0,0-.419-1.974A5.073,5.073,0,0,0,16.367,8.989ZM13.752,20.107a1.28,1.28,0,0,1-.171,1.965c-0.985.891-3.116,1.224-4.183,0.3a1.447,1.447,0,0,1-.49-1.344V20.511H4.058Q4.032,21.224,4,21.936A3.22,3.22,0,0,0,5.341,25c1.6,1.217,4.127,1.269,6.164,1.145,2.423-.147,5.065-0.921,6.641-2.81a6.1,6.1,0,0,0,1.275-3.395h-5.9A1.972,1.972,0,0,1,13.752,20.107ZM37.929,9.2H22.375l-0.715,3.366h5.15l-1.426,6.707h4.94l1.426-6.707h5.464ZM23.986,25.846h4.94l1.255-5.9h-4.94ZM45.65,22.3c-0.127,1.043-.2,2.346-0.328,3.518h5.335a10.505,10.505,0,0,1,.136-3.75c0.1-.794.232-1.511,0.25-2.129H45.467C45.961,20.44,45.715,21.765,45.65,22.3ZM36,25.879h4.94l1.258-5.937h-4.94Zm15-6.607c-0.164-.886-0.826-1.474-2.711-1.656,2.459-.39,3.841-1.447,4.417-2.442A4.652,4.652,0,0,0,53.41,13.5c0.753-3.257-2.547-4.3-5.488-4.3H39.529L37.4,19.272H51Zm-7.236-6.737h2.823A1.464,1.464,0,0,1,48.1,14.376a2.5,2.5,0,0,1-2.337,1.841H42.983ZM88.154,9.2H72.6l-0.716,3.366h5.15l-1.426,6.707h4.94l1.426-6.707h5.465ZM74.211,25.846h4.94l1.255-5.9h-4.94Zm-18.629-5.9-3.711,5.884,4.936,0.009,1.856-3.241H65.53l0.4,3.238h5.436l-1.086-5.89H55.582Zm8.736-7.228,0.8,6.558h5.031L68.295,9.192H62.364L56,19.272h4.559Zm139.761,9.238c-0.972.856-3.01,1.369-4.182,0.618a2.816,2.816,0,0,1-1.039-2.629h-5.117a7.048,7.048,0,0,0,.325,2.615,4.782,4.782,0,0,0,1.088,1.816,7.8,7.8,0,0,0,5.719,1.84,12.54,12.54,0,0,0,6.331-1.68,6.107,6.107,0,0,0,2.876-4.014h-5.144A2.75,2.75,0,0,1,204.079,21.952ZM128.71,25.945H133l1.319-6h-4.311ZM140.018,9.287H132.3l-2.154,9.985h4.315l1.567-7.134,0.382,7.134h3.894Zm-3.249,16.658h4.3l3.108-6h-7.729Zm9.766-6.673h4.337l2.189-9.979h-7.6l-4.66,9.979h3.719l3.491-6.743Zm-1.467,6.679h4.34l1.317-6.009h-4.337Zm9.373-6.009-3.712,5.884h0l4.935,0.009,1.856-3.241h6.868l0.4,3.238h5.436l-1.086-5.89H154.441Zm8.736-7.228,0.8,6.558h5.031l-1.859-10.08h-5.931l-6.359,10.08h4.559ZM186.528,9.2H170.974l-0.716,3.366h5.149l-1.425,6.707h4.94l1.426-6.707h5.464ZM172.585,25.846h4.94l1.255-5.9h-4.94Zm13.526-6.574h4.94L193.185,9.2h-4.94Zm-1.4,6.607h4.94l1.257-5.936H185.97Z" transform="translate(-4 -2.781)"/>
</svg>
