<?xml version="1.0" encoding="utf-8"?>
<svg id="master-artboard" viewBox="0 0 312.5749816894531 226.16278076171875" version="1.1" xmlns="http://www.w3.org/2000/svg" x="0px" y="0px" style="enable-background:new 0 0 1400 980;" width="312.5749816894531px" height="226.16278076171875px"><rect id="ee-background" x="0" y="0" width="312.5749816894531" height="226.16278076171875" style="fill: transparent;"/>
<path d="M 260.79998779296875 86.19999694824219" style=""/><g transform="matrix(7, 0, 0, 7, -565.4056396484375, 9.536988258361816)"><path id="Logo-2" data-name="Logo" class="cls-1" d="M106.927,6.471a11.559,11.559,0,0,1,10.612,6.734h4.091a15.579,15.579,0,0,0-29.406,0h4.092A11.557,11.557,0,0,1,106.927,6.471Zm-5.513,8.666H87.041v4.836h14.373V15.138Zm11.026,4.836h14.373V15.138H112.44v4.836Zm-5.513,8.666a11.557,11.557,0,0,1-10.612-6.734H92.224a15.578,15.578,0,0,0,29.406,0h-4.091A11.559,11.559,0,0,1,106.927,28.639Z" transform="translate(-4 -2.781)" style="fill: rgb(219, 0, 64); fill-rule: evenodd;"/></g></svg>